<svg width="106" height="37" viewBox="0 0 106 37" fill="none" xmlns="http://www.w3.org/2000/svg">
<path d="M42.856 24.24C42.168 24.24 41.44 24.168 40.672 24.024C39.904 23.88 39.216 23.632 38.608 23.28C38.352 23.12 38.168 22.936 38.056 22.728C37.96 22.504 37.92 22.288 37.936 22.08C37.968 21.856 38.048 21.664 38.176 21.504C38.32 21.344 38.496 21.24 38.704 21.192C38.928 21.144 39.168 21.184 39.424 21.312C40.064 21.616 40.664 21.832 41.224 21.96C41.784 22.072 42.336 22.128 42.88 22.128C43.648 22.128 44.216 22 44.584 21.744C44.968 21.472 45.16 21.12 45.16 20.688C45.16 20.32 45.032 20.04 44.776 19.848C44.536 19.64 44.168 19.488 43.672 19.392L41.272 18.936C40.28 18.744 39.52 18.384 38.992 17.856C38.48 17.312 38.224 16.616 38.224 15.768C38.224 15 38.432 14.336 38.848 13.776C39.28 13.216 39.872 12.784 40.624 12.48C41.376 12.176 42.24 12.024 43.216 12.024C43.92 12.024 44.576 12.104 45.184 12.264C45.808 12.408 46.408 12.64 46.984 12.96C47.224 13.088 47.384 13.256 47.464 13.464C47.56 13.672 47.584 13.888 47.536 14.112C47.488 14.32 47.392 14.512 47.248 14.688C47.104 14.848 46.92 14.952 46.696 15C46.488 15.032 46.248 14.984 45.976 14.856C45.48 14.6 45 14.416 44.536 14.304C44.088 14.192 43.656 14.136 43.24 14.136C42.456 14.136 41.872 14.272 41.488 14.544C41.12 14.816 40.936 15.176 40.936 15.624C40.936 15.96 41.048 16.24 41.272 16.464C41.496 16.688 41.84 16.84 42.304 16.92L44.704 17.376C45.744 17.568 46.528 17.92 47.056 18.432C47.6 18.944 47.872 19.632 47.872 20.496C47.872 21.664 47.416 22.584 46.504 23.256C45.592 23.912 44.376 24.24 42.856 24.24ZM55.5376 24.24C54.4976 24.24 53.6256 24.064 52.9216 23.712C52.2336 23.36 51.7216 22.848 51.3856 22.176C51.0496 21.488 50.8816 20.64 50.8816 19.632V14.52H49.6336C49.2496 14.52 48.9536 14.424 48.7456 14.232C48.5376 14.024 48.4336 13.744 48.4336 13.392C48.4336 13.024 48.5376 12.744 48.7456 12.552C48.9536 12.36 49.2496 12.264 49.6336 12.264H50.8816V10.08C50.8816 9.584 51.0096 9.208 51.2656 8.952C51.5376 8.696 51.9136 8.568 52.3936 8.568C52.8736 8.568 53.2416 8.696 53.4976 8.952C53.7536 9.208 53.8816 9.584 53.8816 10.08V12.264H56.4256C56.8096 12.264 57.1056 12.36 57.3136 12.552C57.5216 12.744 57.6256 13.024 57.6256 13.392C57.6256 13.744 57.5216 14.024 57.3136 14.232C57.1056 14.424 56.8096 14.52 56.4256 14.52H53.8816V19.464C53.8816 20.232 54.0496 20.808 54.3856 21.192C54.7216 21.576 55.2656 21.768 56.0176 21.768C56.2896 21.768 56.5296 21.744 56.7376 21.696C56.9456 21.648 57.1296 21.616 57.2896 21.6C57.4816 21.584 57.6416 21.648 57.7696 21.792C57.8976 21.92 57.9616 22.192 57.9616 22.608C57.9616 22.928 57.9056 23.216 57.7936 23.472C57.6976 23.712 57.5136 23.88 57.2416 23.976C57.0336 24.04 56.7616 24.096 56.4256 24.144C56.0896 24.208 55.7936 24.24 55.5376 24.24ZM63.2365 24.24C62.3885 24.24 61.6285 24.08 60.9565 23.76C60.3005 23.424 59.7805 22.976 59.3965 22.416C59.0285 21.856 58.8445 21.224 58.8445 20.52C58.8445 19.656 59.0685 18.976 59.5165 18.48C59.9645 17.968 60.6925 17.6 61.7005 17.376C62.7085 17.152 64.0605 17.04 65.7565 17.04H66.9565V18.768H65.7805C64.7885 18.768 63.9965 18.816 63.4045 18.912C62.8125 19.008 62.3885 19.176 62.1325 19.416C61.8925 19.64 61.7725 19.96 61.7725 20.376C61.7725 20.904 61.9565 21.336 62.3245 21.672C62.6925 22.008 63.2045 22.176 63.8605 22.176C64.3885 22.176 64.8525 22.056 65.2525 21.816C65.6685 21.56 65.9965 21.216 66.2365 20.784C66.4765 20.352 66.5965 19.856 66.5965 19.296V16.536C66.5965 15.736 66.4205 15.16 66.0685 14.808C65.7165 14.456 65.1245 14.28 64.2925 14.28C63.8285 14.28 63.3245 14.336 62.7805 14.448C62.2525 14.56 61.6925 14.752 61.1005 15.024C60.7965 15.168 60.5245 15.208 60.2845 15.144C60.0605 15.08 59.8845 14.952 59.7565 14.76C59.6285 14.552 59.5645 14.328 59.5645 14.088C59.5645 13.848 59.6285 13.616 59.7565 13.392C59.8845 13.152 60.1005 12.976 60.4045 12.864C61.1405 12.56 61.8445 12.344 62.5165 12.216C63.2045 12.088 63.8285 12.024 64.3885 12.024C65.5405 12.024 66.4845 12.2 67.2205 12.552C67.9725 12.904 68.5325 13.44 68.9005 14.16C69.2685 14.864 69.4525 15.776 69.4525 16.896V22.656C69.4525 23.152 69.3325 23.536 69.0925 23.808C68.8525 24.064 68.5085 24.192 68.0605 24.192C67.6125 24.192 67.2605 24.064 67.0045 23.808C66.7645 23.536 66.6445 23.152 66.6445 22.656V21.504H66.8365C66.7245 22.064 66.5005 22.552 66.1645 22.968C65.8445 23.368 65.4365 23.68 64.9405 23.904C64.4445 24.128 63.8765 24.24 63.2365 24.24ZM76.3615 24.24C75.5135 24.24 74.7535 24.08 74.0815 23.76C73.4255 23.424 72.9055 22.976 72.5215 22.416C72.1535 21.856 71.9695 21.224 71.9695 20.52C71.9695 19.656 72.1935 18.976 72.6415 18.48C73.0895 17.968 73.8175 17.6 74.8255 17.376C75.8335 17.152 77.1855 17.04 78.8815 17.04H80.0815V18.768H78.9055C77.9135 18.768 77.1215 18.816 76.5295 18.912C75.9375 19.008 75.5135 19.176 75.2575 19.416C75.0175 19.64 74.8975 19.96 74.8975 20.376C74.8975 20.904 75.0815 21.336 75.4495 21.672C75.8175 22.008 76.3295 22.176 76.9855 22.176C77.5135 22.176 77.9775 22.056 78.3775 21.816C78.7935 21.56 79.1215 21.216 79.3615 20.784C79.6015 20.352 79.7215 19.856 79.7215 19.296V16.536C79.7215 15.736 79.5455 15.16 79.1935 14.808C78.8415 14.456 78.2495 14.28 77.4175 14.28C76.9535 14.28 76.4495 14.336 75.9055 14.448C75.3775 14.56 74.8175 14.752 74.2255 15.024C73.9215 15.168 73.6495 15.208 73.4095 15.144C73.1855 15.08 73.0095 14.952 72.8815 14.76C72.7535 14.552 72.6895 14.328 72.6895 14.088C72.6895 13.848 72.7535 13.616 72.8815 13.392C73.0095 13.152 73.2255 12.976 73.5295 12.864C74.2655 12.56 74.9695 12.344 75.6415 12.216C76.3295 12.088 76.9535 12.024 77.5135 12.024C78.6655 12.024 79.6095 12.2 80.3455 12.552C81.0975 12.904 81.6575 13.44 82.0255 14.16C82.3935 14.864 82.5775 15.776 82.5775 16.896V22.656C82.5775 23.152 82.4575 23.536 82.2175 23.808C81.9775 24.064 81.6335 24.192 81.1855 24.192C80.7375 24.192 80.3855 24.064 80.1295 23.808C79.8895 23.536 79.7695 23.152 79.7695 22.656V21.504H79.9615C79.8495 22.064 79.6255 22.552 79.2895 22.968C78.9695 23.368 78.5615 23.68 78.0655 23.904C77.5695 24.128 77.0015 24.24 76.3615 24.24ZM87.1585 24.192C86.6625 24.192 86.2785 24.064 86.0065 23.808C85.7505 23.536 85.6225 23.152 85.6225 22.656V13.584C85.6225 13.088 85.7505 12.712 86.0065 12.456C86.2625 12.2 86.6225 12.072 87.0865 12.072C87.5505 12.072 87.9105 12.2 88.1665 12.456C88.4225 12.712 88.5505 13.088 88.5505 13.584V15.096H88.3105C88.5345 14.136 88.9745 13.408 89.6305 12.912C90.2865 12.416 91.1585 12.12 92.2465 12.024C92.5825 11.992 92.8465 12.08 93.0385 12.288C93.2465 12.48 93.3665 12.784 93.3985 13.2C93.4305 13.6 93.3345 13.928 93.1105 14.184C92.9025 14.424 92.5825 14.568 92.1505 14.616L91.6225 14.664C90.6465 14.76 89.9105 15.064 89.4145 15.576C88.9185 16.072 88.6705 16.776 88.6705 17.688V22.656C88.6705 23.152 88.5425 23.536 88.2865 23.808C88.0305 24.064 87.6545 24.192 87.1585 24.192ZM101.077 24.24C100.037 24.24 99.1646 24.064 98.4606 23.712C97.7726 23.36 97.2606 22.848 96.9246 22.176C96.5886 21.488 96.4206 20.64 96.4206 19.632V14.52H95.1726C94.7886 14.52 94.4926 14.424 94.2846 14.232C94.0766 14.024 93.9726 13.744 93.9726 13.392C93.9726 13.024 94.0766 12.744 94.2846 12.552C94.4926 12.36 94.7886 12.264 95.1726 12.264H96.4206V10.08C96.4206 9.584 96.5486 9.208 96.8046 8.952C97.0766 8.696 97.4526 8.568 97.9326 8.568C98.4126 8.568 98.7806 8.696 99.0366 8.952C99.2926 9.208 99.4206 9.584 99.4206 10.08V12.264H101.965C102.349 12.264 102.645 12.36 102.853 12.552C103.061 12.744 103.165 13.024 103.165 13.392C103.165 13.744 103.061 14.024 102.853 14.232C102.645 14.424 102.349 14.52 101.965 14.52H99.4206V19.464C99.4206 20.232 99.5886 20.808 99.9246 21.192C100.261 21.576 100.805 21.768 101.557 21.768C101.829 21.768 102.069 21.744 102.277 21.696C102.485 21.648 102.669 21.616 102.829 21.6C103.021 21.584 103.181 21.648 103.309 21.792C103.437 21.92 103.501 22.192 103.501 22.608C103.501 22.928 103.445 23.216 103.333 23.472C103.237 23.712 103.053 23.88 102.781 23.976C102.573 24.04 102.301 24.096 101.965 24.144C101.629 24.208 101.333 24.24 101.077 24.24Z" fill="white"/>
<path d="M11.4364 13.7909L13.4545 15.8091L9.41818 19.8454L13.4545 23.8818L11.4364 25.9L5.38182 19.8454L11.4364 13.7909ZM18.1636 25.9L16.1455 23.8818L20.1818 19.8454L16.1455 15.8091L18.1636 13.7909L24.2182 19.8454L18.1636 25.9ZM26.9091 5.04544H2.69091C1.97724 5.04544 1.29279 5.32895 0.788149 5.83359C0.283506 6.33823 0 7.02268 0 7.73635V29.2636C0 29.9773 0.283506 30.6617 0.788149 31.1664C1.29279 31.671 1.97724 31.9545 2.69091 31.9545H26.9091C27.6228 31.9545 28.3072 31.671 28.8119 31.1664C29.3165 30.6617 29.6 29.9773 29.6 29.2636V7.73635C29.6 7.02268 29.3165 6.33823 28.8119 5.83359C28.3072 5.32895 27.6228 5.04544 26.9091 5.04544ZM26.9091 29.2636H2.69091V10.4273H26.9091V29.2636Z" fill="#CC3358"/>
</svg>
